# xmcd
#
# Track frame offsets:
#  150
#  20177
#  41835
#  67003
#  83188
#  97216
#  117082
#  132289
#  138328
#  151235
#  168853
#  189668
#  207376
#  224693
#  243520
#
# Disc length: 3589 seconds
#
# Revision: 0
# Processed by: cddbd v1.4PL0 Copyright (c) Steve Scherf et al.
# Submitted via: AltoMP3_Maker 3.0
#
DISCID=e40e030f
DTITLE=Earth, Wind and Fire - les indispensables de
DYEAR=1900
DGENRE=
TTITLE0=In the stone
TTITLE1=Boogie wonderland
TTITLE2=Let's groove
TTITLE3=September
TTITLE4=Celebrate
TTITLE5=After the love has gone
TTITLE6=Sing a song
TTITLE7=Brazilian rhyme
TTITLE8=Shining star
TTITLE9=Love music
TTITLE10=Fantasy
TTITLE11=Getaway
TTITLE12=Serpentine fire
TTITLE13=Got to get you into my life
TTITLE14=That's the way of the world
EXTD=
EXTT0=
EXTT1=
EXTT2=
EXTT3=
EXTT4=
EXTT5=
EXTT6=
EXTT7=
EXTT8=
EXTT9=
EXTT10=
EXTT11=
EXTT12=
EXTT13=
EXTT14=
PLAYORDER=
